<svg xmlns="http://www.w3.org/2000/svg" viewBox="0 0 32 32">
  <defs>
    <linearGradient id="bg" x1="0" y1="0" x2="1" y2="1">
      <stop offset="0%" stop-color="#1a3c5e"/>
      <stop offset="100%" stop-color="#e8634a"/>
    </linearGradient>
  </defs>
  <rect width="32" height="32" rx="7" fill="url(#bg)"/>
  <path d="M8 6h12l6 6v14a2 2 0 0 1-2 2H8a2 2 0 0 1-2-2V8a2 2 0 0 1 2-2z" fill="white" opacity="0.95"/>
  <path d="M20 6v6h6" fill="none" stroke="white" stroke-width="1.2" opacity="0.4"/>
  <rect x="10" y="14" width="12" height="1.5" rx="0.75" fill="#1a3c5e" opacity="0.35"/>
  <rect x="10" y="17.5" width="9" height="1.5" rx="0.75" fill="#1a3c5e" opacity="0.35"/>
  <rect x="10" y="21" width="10.5" height="1.5" rx="0.75" fill="#1a3c5e" opacity="0.35"/>
  <path d="M25 3l1 3 3 1-3 1-1 3-1-3-3-1 3-1z" fill="#fbbf24"/>
</svg>
